<svg width="151" height="36" viewBox="0 0 151 36" fill="none" xmlns="http://www.w3.org/2000/svg">
<rect width="36" height="36" rx="6" fill="#150D08"/>
<path d="M20.0343 8L19.1777 16.5333L27.4004 14.1333L28 18.2222L20.1199 18.8889L25.2163 25.9111L21.5332 28L17.8929 20.2222L14.5953 28L10.7837 25.9111L15.7944 18.8889L8 18.2222L8.59957 14.1333L16.7366 16.5333L15.8373 8H20.0343Z" fill="white"/>
<path d="M48 21.8405C49.3243 23.7514 52.5405 25 55.7757 25C59.6162 25 62.5865 23.5054 62.5865 20.5351C62.5865 17.6027 59.8622 17.0919 56.0027 16.6568C52.5595 16.2595 51.6514 16.0324 51.6514 15.0486C51.6514 14.1405 52.7486 13.3649 55.1703 13.3649C57.4784 13.3649 59.4081 14.1405 60.4486 15.4838L62.3027 13.7054C61.073 12.0784 58.3486 11 55.3216 11C51.4622 11 48.9459 12.7595 48.9459 15.3324C48.9459 18.0189 51.5 18.6432 54.8297 19.0216C58.6514 19.4378 59.7676 19.5514 59.7676 20.8378C59.7676 21.9351 58.1595 22.6162 55.8892 22.6162C53.8838 22.6162 51.4243 21.973 49.873 19.8919L48 21.8405Z" fill="#150D08"/>
<path d="M67.6448 19.7973H73.3583C76.461 19.7973 78.5042 18.3027 78.5042 15.5027C78.5042 12.6838 76.461 11.2081 73.3583 11.2081H64.8637V24.7919H67.6448V19.7973ZM67.6448 17.4324V13.573H73.2069C74.8151 13.573 75.761 14.273 75.761 15.5027C75.761 16.7135 74.8151 17.4324 73.2069 17.4324H67.6448Z" fill="#150D08"/>
<path d="M83.5515 19.7405H88.3947L91.592 24.7919H94.7893L91.3271 19.4757C93.2569 18.9459 94.4677 17.5649 94.4677 15.4838C94.4677 12.6838 92.3866 11.2081 89.3028 11.2081H80.7704V24.7919H83.5515V19.7405ZM83.5515 17.4135V13.573H89.1515C90.7785 13.573 91.7055 14.273 91.7055 15.5027C91.7055 16.7135 90.7785 17.4135 89.1515 17.4135H83.5515Z" fill="#150D08"/>
<path d="M99.5875 11.2081H96.8064V24.7919H99.5875V11.2081Z" fill="#150D08"/>
<path d="M116.737 11.2081H114.031V20.8L105.556 11.2081H102.718V24.7919H105.404V14.7459L114.277 24.7919H116.737V11.2081Z" fill="#150D08"/>
<path d="M133.806 13.6108V11.2081H119.011V13.6108H125.008V24.7919H127.808V13.6108H133.806Z" fill="#150D08"/>
<path d="M142.147 11C137.493 11 134.125 13.9703 134.125 18C134.125 22.0297 137.493 25 142.147 25C146.782 25 150.169 22.0297 150.169 18C150.169 13.9703 146.782 11 142.147 11ZM142.147 13.4405C145.193 13.4405 147.312 15.2568 147.312 18C147.312 20.7432 145.193 22.5595 142.147 22.5595C139.101 22.5595 136.982 20.7432 136.982 18C136.982 15.2568 139.101 13.4405 142.147 13.4405Z" fill="#150D08"/>
</svg>
